<?xml version="1.0" standalone="no"?>
<!DOCTYPE svg PUBLIC "-//W3C//DTD SVG 20010904//EN"
 "http://www.w3.org/TR/2001/REC-SVG-20010904/DTD/svg10.dtd">
<svg version="1.0" xmlns="http://www.w3.org/2000/svg"
 width="700.000000pt" height="700.000000pt" viewBox="0 0 700.000000 700.000000"
 preserveAspectRatio="xMidYMid meet">
<metadata>
Created by potrace 1.14, written by Peter Selinger 2001-2017
</metadata>
<g transform="translate(0.000000,700.000000) scale(0.100000,-0.100000)"
fill="#000000" stroke="none">
<path d="M3235 6994 c-132 -13 -313 -38 -400 -55 -1340 -261 -2407 -1276
-2735 -2601 -77 -312 -105 -582 -97 -928 8 -310 32 -490 102 -770 191 -763
652 -1456 1282 -1932 478 -360 1012 -583 1613 -675 161 -25 201 -27 490 -27
321 -1 378 3 620 45 964 167 1835 755 2359 1593 275 438 437 899 513 1456 17
128 17 672 0 800 -64 467 -176 828 -376 1215 -296 573 -756 1062 -1306 1389
-426 253 -870 407 -1360 472 -119 15 -605 28 -705 18z m486 -2094 c251 -26
465 -106 576 -216 58 -58 79 -111 68 -179 -8 -54 -55 -129 -97 -154 -31 -19
-32 -19 -57 -2 -79 56 -303 151 -416 177 -112 26 -401 27 -495 1 -206 -56
-310 -169 -310 -338 0 -126 72 -233 195 -290 37 -18 188 -62 361 -105 281 -71
414 -113 515 -164 78 -40 188 -121 243 -180 112 -122 157 -240 163 -435 6
-160 -10 -247 -66 -360 -118 -238 -364 -376 -740 -414 -360 -37 -785 41 -986
179 -102 71 -145 138 -145 225 0 86 35 151 111 205 l25 19 75 -50 c41 -27 128
-77 194 -109 190 -94 352 -127 585 -117 305 12 458 99 506 290 34 132 -5 276
-101 366 -83 78 -147 104 -489 196 -454 121 -565 167 -697 292 -117 111 -178
266 -179 451 -1 340 218 585 610 683 150 38 355 48 551 29z"/>
</g>
</svg>
